<svg id="Layer_1" data-name="Layer 1" xmlns="http://www.w3.org/2000/svg" width="160" height="46" viewBox="0 0 160 46"><defs><style>.cls-1{fill:#005cff;}.cls-2{fill:#0380ff;}</style></defs><title>H10 Main Logo</title><polygon points="138.57 36.73 139.25 36.73 139.25 38.56 139.6 38.56 139.6 36.73 140.17 36.73 140.17 36.5 138.57 36.5 138.57 36.73"/><path d="M142.11,36.5,141.66,38c0,.11,0,.11-.12.22V38.1l-.46-1.49h-.45v2.06H141V37.18l.46,1.49h.34l.46-1.49v1.49h.34V36.61h-.46Z"/><path class="cls-1" d="M76.57,25.52l1.26.23S83,15.91,93.5,11.1L97.84,9l.35-.8-.12-.34H98l.11.34-.23.58S90.18,11.68,85.49,16a37.65,37.65,0,0,0-7.66,9.27l-1.15-.23Z"/><path d="M65.93,30a10.2,10.2,0,0,1,4.8-5.72,22.32,22.32,0,0,0,7.55,6.29s4.12-16,19.79-22.31l-3,8.58L93,13.05A38.64,38.64,0,0,0,82.4,23.69s6.29-6.3,10.41-8.24L95.33,20l.57-2.64a16.72,16.72,0,0,1-5.72,13.5,15.64,15.64,0,0,1-22.42-2.74C68,28.15,66.39,29.06,65.93,30Z"/><path d="M82.52,23.69s5.94-7.1,10.63-9.5L95.21,18,98.3,9.39l-.11-1.15-.12.12.12.91-3,8.47-2.06-3.66A40,40,0,0,0,82.52,23.69Z"/><polygon points="93.16 12.93 93.16 14.19 93.84 15.34 93.16 12.93"/><polygon points="95.21 17.85 95.21 16.59 95.9 14.54 95.21 17.85"/><path class="cls-2" d="M65.93,30a18,18,0,0,1,5.26-8.92,23.84,23.84,0,0,0,5.38,4.57S85.49,10.87,98,8.13a51,51,0,0,0-11-.69,28.4,28.4,0,0,1,2.63,1.83s-6.29,4.35-9.72,9.84a29.44,29.44,0,0,1,7.77-9.72L84.23,6.87s5.15-.23,6-.11A14.51,14.51,0,0,0,80.11,3.32c-6.29.12-15.1,4.58-15.32,16,0,0,.22,4.35,1.83,6.63A11.19,11.19,0,0,0,65.93,30Z"/><path class="cls-1" d="M65.93,30s1-3.89,6.06-8l-.11-.11C71.88,21.74,67,25.63,65.93,30Z"/><polygon class="cls-1" points="86.98 7.33 87.09 8.13 89.04 9.73 89.15 9.62 87.09 8.13 87.09 7.44 86.98 7.33"/><path d="M70.73,24.26l1.49.23s3.32,3.89,6.52,5l-.11.11a15.75,15.75,0,0,1-6.52-5l-1.49-.23Z"/><path d="M120.38,45h-1.49l-.11-6a6.93,6.93,0,0,1-1.83.23V38c1.26,0,1.94-.46,2.06-1.38h1.26Z"/><path d="M24.18,45l-.12-8.35h1.6v2.75h7.1V36.61h1.71L34.59,45H33l-.12-4.12H25.78L25.89,45Z"/><path d="M40.31,45l-.12-8.35h10.3v1.6h-8.7v1.15h7.1v1.48h-7.1v2.52h8.7V45Z"/><path d="M56,45l-.12-8.35h1.61l.11,6.75h5.83V45Z"/><path d="M68.79,45l-.11-8.35h1.6L70.39,45Z"/><path d="M79,45a4.1,4.1,0,0,1-1.26-.11,2.37,2.37,0,0,1-.91-.46,2.31,2.31,0,0,1-.46-.69,2.61,2.61,0,0,1-.11-1l-.12-6.06h1.72l.11,6.06a.93.93,0,0,0,.23.58,1.71,1.71,0,0,0,.8.23h4.69a1.36,1.36,0,0,0,.8-.23.88.88,0,0,0,.23-.58l-.11-6.06h1.71l.12,6.06a3,3,0,0,1-.12,1c-.11.23-.23.58-.46.69a1.8,1.8,0,0,1-.8.46,4.45,4.45,0,0,1-1.26.11Z"/><path d="M92.13,44.85,92,37.18a.93.93,0,0,1,.23-.57.88.88,0,0,1,.57-.23.39.39,0,0,1,.34.12c.12,0,.23.11.35.23l6,6.29,5.72-6.29c.11-.12.22-.23.34-.23s.23-.12.34-.12.35.12.57.23a.87.87,0,0,1,.23.57l.12,7.67h-1.6l-.12-5.72-5,5.6a.83.83,0,0,1-1.15,0l-5.14-5.6.11,5.72Z"/><path d="M128.5,44.85a3.78,3.78,0,0,1-1.26-.12,2.22,2.22,0,0,1-.91-.45,2.31,2.31,0,0,1-.46-.69,2.63,2.63,0,0,1-.11-1l-.12-3.77a3,3,0,0,1,.12-1c.11-.23.22-.58.45-.69a1.92,1.92,0,0,1,.8-.46,4.48,4.48,0,0,1,1.26-.11h4.81a4.52,4.52,0,0,1,1.26.11,2.37,2.37,0,0,1,.91.46,2.51,2.51,0,0,1,.46.69,2.63,2.63,0,0,1,.11,1l.12,3.77a3,3,0,0,1-.12,1c-.11.23-.23.57-.46.69a1.7,1.7,0,0,1-.8.45,4.06,4.06,0,0,1-1.25.12Zm-1.14-2.4a.87.87,0,0,0,.23.57,1.65,1.65,0,0,0,.8.23h4.8A1.36,1.36,0,0,0,134,43a.87.87,0,0,0,.23-.57l-.11-3.66a.93.93,0,0,0-.23-.58,1.71,1.71,0,0,0-.8-.22h-4.81a1.39,1.39,0,0,0-.8.22.93.93,0,0,0-.23.58Z"/><path class="cls-2" d="M133.76,30.66V1l-4.34,4V30C130.9,30.21,132.28,30.44,133.76,30.66Z"/><path class="cls-2" d="M127.93,29.75V6.18l-4.23,3.89V29.18C125.18,29.29,126.56,29.52,127.93,29.75Z"/><path class="cls-2" d="M122.32,29v-20l-2.86-1.72-1.37,1.61V28.38C119.58,28.61,121,28.83,122.32,29Z"/><path class="cls-2" d="M116.72,28.38V10.53l-4.23,5V27.92C114,28,115.35,28.26,116.72,28.38Z"/><path class="cls-2" d="M111.23,27.8V17.28l-2,2.4L107.11,18v9.61C108.48,27.58,109.86,27.69,111.23,27.8Z"/><path class="cls-2" d="M105.62,27.46V17.17l-4.23,3.43v6.52Z"/><path class="cls-2" d="M100.13,27.12V21.74L95.9,25.17v1.72C97.27,27,98.76,27,100.13,27.12Z"/><path class="cls-2" d="M63.64,26.89v-1.6l-4.23-3.43v5.26C60.9,27,62.27,26.89,63.64,26.89Z"/><path class="cls-2" d="M58.15,27.12V20.6l-4.23-3.43V27.35C55.29,27.23,56.66,27.23,58.15,27.12Z"/><path class="cls-2" d="M52.55,27.46V18.08L50.37,19.8l-2.06-2.52V27.69C49.69,27.69,51.17,27.58,52.55,27.46Z"/><path class="cls-2" d="M46.94,27.92V15.68l-4.23-5V28.38C44.2,28.15,45.57,28,46.94,27.92Z"/><path class="cls-2" d="M30.24,29.75V5L25.89,1V30.55C27.27,30.21,28.75,30,30.24,29.75Z"/><path class="cls-2" d="M41.45,28.38V8.93l-1.37-1.6L37.22,9V29C38.59,28.72,40,28.49,41.45,28.38Z"/><path class="cls-2" d="M35.85,29.06v-19L31.61,6.18V29.52C33,29.41,34.47,29.18,35.85,29.06Z"/><path d="M69.25,31.12a12.55,12.55,0,0,1-1.72-1.83L66,31.12Z"/><path d="M64.9,29.06A428.8,428.8,0,0,0,6.45,35c19.21-2.17,38.66-3.43,58.22-3.89A13.37,13.37,0,0,0,64.9,29.06Z"/><path d="M93.38,29.06a9.26,9.26,0,0,1-2.17,2.06c20.48.34,42.21,1.72,62.34,3.89A452.33,452.33,0,0,0,93.38,29.06Z"/></svg>